# xmcd CD database file generated by Grip 3.2.0
# 
# Track frame offsets:
#       150
#       16745
#       36304
#       51055
#       68671
#       83514
#       103900
#       124821
#       139992
#       155578
#       175989
#       191884
#       211672
#       235851
#       278335
#       301652
# 
# Disc length: 4300 seconds
# 
# Revision: 1
# Processed by: cddbd v1.5.2PL0 Copyright (c) Steve Scherf et al.
# Submitted via: Grip 3.2.0
# 
DISCID=d110ca10
DTITLE=Randy Rogers Band - Live at Billy Bob's Texas
DYEAR=2005
DGENRE=Country
TTITLE0=Somebody Take Me Home
TTITLE1=Down And Out
TTITLE2=Like It Used To Be
TTITLE3=Company You Keep
TTITLE4=Still Be Losing You
TTITLE5=Can't Slow Down
TTITLE6=Love Must Follow You Around
TTITLE7=One Thing I Know
TTITLE8=Again
TTITLE9=I Never Meant To Break Your Heart
TTITLE10=Ten Miles Deep
TTITLE11=Tonight's Not The Night (For Goodbye)
TTITLE12=They Call It The Hill Country
TTITLE13=Lost And Found
TTITLE14=This Time Around
TTITLE15=Empty Glass, An (That's The Way The Day Ends)
EXTD=
EXTT0=
EXTT1=
EXTT2=
EXTT3=
EXTT4=
EXTT5=
EXTT6=
EXTT7=
EXTT8=
EXTT9=
EXTT10=
EXTT11=
EXTT12=
EXTT13=
EXTT14=
EXTT15=
PLAYORDER=
